<svg xmlns="http://www.w3.org/2000/svg" viewBox="0 0 128 128" role="img" aria-label="Burkoló lapkiosztó ikon">
  <defs>
    <linearGradient id="bg" x1="0" y1="0" x2="128" y2="128" gradientUnits="userSpaceOnUse">
      <stop offset="0" stop-color="#1497d4"/>
      <stop offset="0.55" stop-color="#12c7c0"/>
      <stop offset="1" stop-color="#ff7a2f"/>
    </linearGradient>
    <filter id="shadow" x="-20%" y="-20%" width="140%" height="140%">
      <feDropShadow dx="5" dy="8" stdDeviation="5" flood-color="#123044" flood-opacity="0.34"/>
    </filter>
  </defs>

  <rect width="128" height="128" rx="24" fill="url(#bg)"/>

  <g filter="url(#shadow)">
    <rect x="16" y="15" width="89" height="89" rx="14" fill="#fff" opacity="0.96"/>

    <g stroke-width="2.8">
      <rect x="24" y="24" width="21" height="21" rx="4" fill="#ffbe6b" stroke="#c96d16"/>
      <rect x="48" y="24" width="21" height="21" rx="4" fill="#c2e5ff" stroke="#4380a8"/>
      <rect x="72" y="24" width="21" height="21" rx="4" fill="#c2e5ff" stroke="#4380a8"/>

      <rect x="24" y="48" width="21" height="21" rx="4" fill="#ffbe6b" stroke="#c96d16"/>
      <rect x="48" y="48" width="21" height="21" rx="4" fill="#c2e5ff" stroke="#4380a8"/>
      <rect x="72" y="48" width="21" height="21" rx="4" fill="#c2e5ff" stroke="#4380a8"/>

      <rect x="24" y="72" width="21" height="21" rx="4" fill="#ffbe6b" stroke="#c96d16"/>
      <rect x="48" y="72" width="21" height="21" rx="4" fill="#ffbe6b" stroke="#c96d16"/>
      <rect x="72" y="72" width="21" height="21" rx="4" fill="#ffbe6b" stroke="#c96d16"/>
    </g>

    <path d="M79 25L108 54" stroke="#123044" stroke-width="12" stroke-linecap="square"/>
    <path d="M71 33L100 62" stroke="#ffbe6b" stroke-width="12" stroke-linecap="square"/>
    <path d="M66 38L95 67" stroke="#ffffff" stroke-width="2.5" stroke-linecap="round" opacity="0.9"/>
    <path d="M108 54L119 58L112 47Z" fill="#fff"/>

    <rect x="28" y="92" width="72" height="24" rx="8" fill="#123044"/>
    <text x="64" y="110" text-anchor="middle" font-family="Arial, Segoe UI, sans-serif" font-size="18" font-weight="900" fill="#ffffff">LAP</text>
  </g>
</svg>
